<svg xmlns="http://www.w3.org/2000/svg" width="153" height="41" fill="none" fill-rule="evenodd" xmlns:v="https://vecta.io/nano"><path d="M57.936 40.461h7.071c1.297-1.312 1.482-1.891 2.625-3.447l2.501-3.569 13.833-19.704.617-.915c1.359-2.165-2.192-1.738-3.026-1.738-3.983 0-4.076-.519-5.496 1.677l-4.354 6.314c-.648.915-2.223 3.508-2.933 4.118l-2.779-9.211c-.679-2.288-.494-2.898-3.18-2.867-6.947.03-6.546-1.434-3.088 8.449l3.396 9.821c.309.854.617 1.098.154 1.8l-4.323 6.039c-1.142 1.556-1.976 2.196-1.019 3.233z" fill="#36589c"/><path d="M152.017 1.551V.598c-.803-.738-.952-.584-2.202-.584-5.655.031-4.822-.461-5.328 2.892l-3.69 24.272c-.715 4.645-1.578 5.906 1.011 5.906 4.911-.031 5.269.523 5.745-2.553l4.464-28.979z" fill="#009ae0"/><path d="M43.935 31.727c.044-.232.089-.47.077-.785-2.377 2.818-8.349 4.074-12.279 2.175-3.534-1.685-5.576-6.187-4.479-11.456 1.463-7.014 7.313-11.18 13.985-10.567 3.169.276 3.9.98 5.454 2.665.17-.266.269-.813.357-1.293.054-.295.103-.565.161-.729.882-.28 2.399-.24 3.732-.205l1.174.021h.243c2.126-.003 2.425-.004 2.043 2.389l-1.108 6.949L53 22.764l-1.37 8.784-.001.006c-.305 1.96-1.188 1.96-3.138 1.96-.309 0-.657.017-1.023.035-1.327.065-2.872.141-3.517-.556-.147-.574-.083-.913-.016-1.267zm-3.931-14.95c-6.769 1.632-6.407 12.59 1.541 10.559 6.618-1.693 6.437-12.467-1.541-10.559z" fill="#36589c"/><path d="M128.578 31.617l.086-.613c-.235.132-.406.272-.582.415-.188.154-.382.312-.666.47-3.378 2.259-7.578 2.9-11.231 1.068-3.5-1.77-5.417-6.196-4.321-11.354.943-4.395 3.804-7.752 7.061-9.309 2.769-1.343 7.152-1.831 10.226-.366 1.14.539 1.459.972 1.763 1.384.126.171.249.338.428.508.289-2.292.487-2.287 2.22-2.243l.945.015c.398 0 .821-.016 1.244-.033 1.584-.061 3.166-.122 3.382.673.147.489-1.507 10.691-2.325 15.739l-.414 2.575-.08.56c-.223 1.625-.326 2.37-2.385 2.37l-.71.02c-1.449.045-3.482.108-4.464-.203-.333-.668-.276-1.037-.177-1.677zm-4.857-14.842c-6.736 1.632-6.524 12.472 1.449 10.593 6.735-1.601 6.433-12.502-1.449-10.593zM89.424 2.316c.148-1.102.242-1.801 1.332-2.165.825-.276 13.514-.123 14.95.061 12.291 1.751 7.032 16.002 3.394 18.859-3.944 3.081-7.804 2.98-10.602 2.907-2.278-.06-3.852-.101-4.195 1.608l-1.04 6.604c-.228 1.467-.256 2.197-.635 2.554-.486.457-1.549.303-4.348.303-.203 0-.444.012-.704.026-1.029.053-2.342.121-2.659-.517-.342-.686 2.682-19.071 3.985-26.993l.479-2.923.044-.322zm13.209 11.895c-1.5 1.43-5.139 1.589-7.629 1.303l.048-.334 1.165-7.514c.272-1.353 1.401-1.277 2.756-1.186l.724.042c1.34.032 2.649.222 3.511.953.926.826 1.149 2.033.894 3.654-.224 1.461-.607 2.288-1.469 3.082z" fill="#009ae0"/><path d="M.29 32.432v-.954c.376-.593 1.276-6.929 1.808-10.675l.354-2.434L5.009 1.905C5.222.674 5.649.089 6.928.059c2.649-.092 12.667-.123 14.829.277 2.406.462 3.563 1.077 5.146 2.585 2.832 2.647 2.04 8.555.518 12.094-1.492 3.477-4.202 5.816-8.495 6.709-2.307.476-4.135.386-5.535.316-2.13-.105-3.27-.162-3.6 1.899l-1.035 6.616c-.396 2.591-.77 2.585-3.65 2.539l-1.496-.015c-1.762 0-2.152.078-2.457-.048-.201-.083-.366-.256-.862-.598zm12.365-16.826l-1.331.026 1.054-7.056c.171-1.016.313-1.22 1.396-1.22 3.988 0 6.865.348 5.469 5.198-.848 2.976-3.51 3.011-6.588 3.052z" fill="#36589c"/></svg>