<svg xmlns="http://www.w3.org/2000/svg" height="512" width="512" xmlns:v="https://vecta.io/nano"><path d="M256 512c-68.38 0-132.667-26.629-181.02-74.98S0 324.38 0 256 26.629 123.333 74.98 74.98 187.62 0 256 0s132.667 26.629 181.02 74.98S512 187.62 512 256s-26.629 132.667-74.98 181.02S324.38 512 256 512zm0-472C136.897 40 40 136.897 40 256s96.897 216 216 216 216-96.897 216-216S375.103 40 256 40zm-1 235c-52.935 0-96-43.065-96-96s43.065-96 96-96 96 43.065 96 96-43.065 96-96 96zm0-152c-30.879 0-56 25.122-56 56s25.121 56 56 56 56-25.122 56-56-25.121-56-56-56zm126.712 268.472c8.546-6.999 9.799-19.6 2.8-28.146C356.231 328.801 314.444 309 269.865 309h-23.73c-44.579 0-86.366 19.801-114.646 54.327-6.999 8.545-5.746 21.146 2.8 28.146s21.146 5.745 28.146-2.799c20.65-25.214 51.158-39.674 83.7-39.674h23.73c32.542 0 63.05 14.46 83.701 39.673A19.96 19.96 0 0 0 369.05 396c4.459 0 8.945-1.483 12.662-4.528z"/></svg>