<svg xmlns="http://www.w3.org/2000/svg" xmlns:xlink="http://www.w3.org/1999/xlink" height="51" viewBox="0 0 512.005 512.005" width="51" xmlns:v="https://vecta.io/nano"><path d="M418.115 356.003H173.293c-28.937 0-53.751-20.654-59.004-49.11L67.174 55.604c-2.043-9.053-10.214-15.601-19.511-15.601H20c-11.046 0-20-8.954-20-20s8.954-20 20-20h27.663c28.105 0 52.779 19.947 58.668 47.428l.102.505 5.263 28.066H492c12.312 0 21.766 11.06 19.728 23.288l-34.43 206.576c-4.84 29.051-29.731 50.137-59.183 50.137zm-298.92-240l34.419 183.574c1.762 9.541 10.033 16.426 19.679 16.426h244.822c9.817 0 18.113-7.028 19.728-16.711l30.548-183.289zm67.72 143.634l-14.785-80c-4.807-26.004 34.521-33.308 39.334-7.27l14.785 80c4.807 26.007-34.518 33.331-39.334 7.27zm177.584-6.924l13.34-80c4.348-26.079 43.81-19.542 39.455 6.579l-13.34 80c-4.427 26.551-43.774 19.328-39.455-6.579z"/><use xlink:href="#B"/><use xlink:href="#B" x="240"/><path d="m276 256.003v-80c0-26.442 40-26.48 40 0v80c0 26.441-40 26.48-40 0z"/><defs ><path id="B" d="m176 512.003c-33.084 0-60-26.916-60-60s26.916-60 60-60 60 26.916 60 60-26.916 60-60 60zm0-80c-11.028 0-20 8.972-20 20s8.972 20 20 20 20-8.972 20-20-8.972-20-20-20z"/></defs></svg>